<?xml version="1.0" encoding="utf-8"?>
<!-- Generator: Adobe Illustrator 26.0.3, SVG Export Plug-In . SVG Version: 6.00 Build 0)  -->
<svg version="1.1" id="Слой_1" xmlns="http://www.w3.org/2000/svg" xmlns:xlink="http://www.w3.org/1999/xlink" x="0px" y="0px"
	 viewBox="0 0 1400.2 115.3" style="enable-background:new 0 0 1400.2 115.3;" xml:space="preserve">
<style type="text/css">
	.st0{display:none;fill:#FFFFFF;stroke:#000000;stroke-miterlimit:10;}
	.st1{display:none;}
	.st2{display:inline;fill:#263654;stroke:#FFFFFF;stroke-width:2;stroke-miterlimit:10;}
	.st3{fill:#FFFFFF;}
</style>
<g>
	<path d="M44.68,115.3H19.6V10.99h25.08V115.3z"/>
	<path d="M101.63,93.52c0-2.05-1.07-3.7-3.22-4.94c-2.15-1.24-6.23-2.53-12.25-3.87c-6.02-1.34-10.99-3.09-14.9-5.27
		c-3.92-2.17-6.9-4.81-8.96-7.92c-2.05-3.1-3.08-6.66-3.08-10.67c0-7.12,2.94-12.98,8.81-17.59c5.87-4.61,13.56-6.91,23.07-6.91
		c10.22,0,18.44,2.32,24.65,6.95c6.21,4.63,9.31,10.72,9.31,18.27h-24.22c0-6.21-3.27-9.31-9.82-9.31c-2.53,0-4.66,0.71-6.38,2.11
		c-1.72,1.41-2.58,3.16-2.58,5.27c0,2.15,1.05,3.89,3.15,5.23c2.1,1.34,5.46,2.44,10.07,3.3c4.61,0.86,8.66,1.89,12.14,3.08
		c11.65,4.01,17.48,11.2,17.48,21.57c0,7.07-3.14,12.82-9.42,17.27c-6.28,4.44-14.41,6.66-24.39,6.66c-6.64,0-12.56-1.19-17.77-3.58
		c-5.21-2.39-9.27-5.63-12.18-9.74c-2.91-4.11-4.37-8.43-4.37-12.97h22.57c0.1,3.58,1.29,6.2,3.58,7.84
		c2.29,1.65,5.23,2.47,8.81,2.47c3.3,0,5.77-0.67,7.42-2.01C100.81,97.41,101.63,95.67,101.63,93.52z"/>
	<path d="M159.02,37.78l0.79,9.1c5.49-7.02,12.87-10.53,22.14-10.53c9.79,0,16.41,3.89,19.85,11.68
		c5.25-7.78,12.85-11.68,22.78-11.68c15.71,0,23.79,9.5,24.22,28.51v50.44h-24.22V66.37c0-3.96-0.67-6.85-2.01-8.67
		c-1.34-1.81-3.77-2.72-7.31-2.72c-4.78,0-8.34,2.13-10.67,6.38l0.07,1v52.94h-24.22V66.51c0-4.06-0.65-7-1.93-8.81
		c-1.29-1.81-3.75-2.72-7.38-2.72c-4.63,0-8.17,2.13-10.6,6.38v53.95h-24.14V37.78H159.02z"/>
	<path d="M306.25,115.3c-0.86-1.58-1.62-3.89-2.29-6.95c-4.44,5.59-10.65,8.38-18.63,8.38c-7.31,0-13.52-2.21-18.63-6.63
		c-5.11-4.42-7.67-9.97-7.67-16.66c0-8.41,3.1-14.76,9.31-19.06c6.21-4.3,15.24-6.45,27.08-6.45h7.45v-4.1
		c0-7.15-3.08-10.73-9.24-10.73c-5.73,0-8.6,2.83-8.6,8.5H260.9c0-7.49,3.19-13.57,9.56-18.25c6.38-4.67,14.51-7.01,24.39-7.01
		c9.89,0,17.7,2.41,23.43,7.24c5.73,4.83,8.67,11.44,8.81,19.85v34.32c0.1,7.12,1.19,12.56,3.3,16.33v1.22H306.25z M291.13,99.54
		c3.01,0,5.5-0.64,7.49-1.93c1.98-1.29,3.4-2.75,4.26-4.37V80.84h-7.02c-8.41,0-12.61,3.77-12.61,11.32c0,2.2,0.74,3.98,2.22,5.34
		C286.95,98.86,288.84,99.54,291.13,99.54z"/>
	<path d="M340.28,17.79c0-3.44,1.24-6.26,3.73-8.45c2.48-2.2,5.71-3.3,9.67-3.3c3.96,0,7.19,1.1,9.67,3.3
		c2.48,2.2,3.73,5.01,3.73,8.45c0,3.44-1.24,6.26-3.73,8.45c-2.48,2.2-5.71,3.3-9.67,3.3c-3.97,0-7.19-1.1-9.67-3.3
		C341.52,24.05,340.28,21.23,340.28,17.79z M365.93,115.3h-24.22V37.78h24.22V115.3z"/>
	<path d="M406.26,115.3h-24.22V5.25h24.22V115.3z"/>
	<path d="M494.24,76.47l-10.32,11.32v27.51h-25.15V10.99h25.15v46l8.74-13.25l22.5-32.74h31.09l-35.25,46.14l35.25,58.17h-29.8
		L494.24,76.47z"/>
	<path d="M595.19,115.3c-0.86-1.58-1.62-3.89-2.29-6.95c-4.44,5.59-10.65,8.38-18.63,8.38c-7.31,0-13.52-2.21-18.63-6.63
		c-5.11-4.42-7.67-9.97-7.67-16.66c0-8.41,3.1-14.76,9.31-19.06c6.21-4.3,15.24-6.45,27.08-6.45h7.45v-4.1
		c0-7.15-3.08-10.73-9.24-10.73c-5.73,0-8.6,2.83-8.6,8.5h-24.14c0-7.49,3.19-13.57,9.56-18.25c6.38-4.67,14.51-7.01,24.39-7.01
		c9.89,0,17.7,2.41,23.43,7.24c5.73,4.83,8.67,11.44,8.81,19.85v34.32c0.1,7.12,1.19,12.56,3.3,16.33v1.22H595.19z M580.07,99.54
		c3.01,0,5.5-0.64,7.49-1.93c1.98-1.29,3.4-2.75,4.26-4.37V80.84h-7.02c-8.41,0-12.61,3.77-12.61,11.32c0,2.2,0.74,3.98,2.22,5.34
		C575.89,98.86,577.78,99.54,580.07,99.54z"/>
	<path d="M651.57,37.78l0.79,9.1c5.35-7.02,12.73-10.53,22.14-10.53c8.07,0,14.1,2.41,18.09,7.24c3.99,4.83,6.05,12.08,6.2,21.78
		v49.94h-24.22V66.37c0-3.92-0.79-6.79-2.36-8.63s-4.44-2.76-8.6-2.76c-4.73,0-8.24,1.86-10.53,5.59v54.74h-24.14V37.78H651.57z"/>
	<path d="M709.1,75.82c0-7.74,1.5-14.63,4.51-20.67s7.33-10.69,12.97-13.94c5.63-3.25,12.25-4.87,19.84-4.87
		c11.61,0,20.75,3.59,27.44,10.78c6.69,7.19,10.03,16.97,10.03,29.34v0.86c0,12.08-3.36,21.67-10.07,28.77
		c-6.71,7.09-15.8,10.64-27.26,10.64c-11.03,0-19.89-3.31-26.58-9.92c-6.69-6.61-10.29-15.58-10.82-26.9L709.1,75.82z M733.25,77.33
		c0,7.17,1.12,12.42,3.37,15.76c2.25,3.34,5.56,5.02,9.96,5.02c8.6,0,12.99-6.62,13.18-19.85v-2.44c0-13.9-4.44-20.85-13.33-20.85
		c-8.07,0-12.44,6-13.11,17.98L733.25,77.33z"/>
	<path d="M861.49,83.49l7.81-45.71h23.14l-18.27,77.52h-20.42l-12.82-46l-12.9,46h-20.42l-18.27-77.52h23.14l7.67,46.78l12.32-46.78
		h16.84L861.49,83.49z"/>
	<path d="M944.74,115.3c-0.86-1.58-1.62-3.89-2.29-6.95c-4.44,5.59-10.65,8.38-18.63,8.38c-7.31,0-13.52-2.21-18.63-6.63
		c-5.11-4.42-7.67-9.97-7.67-16.66c0-8.41,3.1-14.76,9.31-19.06c6.21-4.3,15.24-6.45,27.08-6.45h7.45v-4.1
		c0-7.15-3.08-10.73-9.24-10.73c-5.73,0-8.6,2.83-8.6,8.5h-24.14c0-7.49,3.19-13.57,9.56-18.25c6.38-4.67,14.51-7.01,24.39-7.01
		s17.7,2.41,23.43,7.24c5.73,4.83,8.67,11.44,8.81,19.85v34.32c0.09,7.12,1.19,12.56,3.29,16.33v1.22H944.74z M929.62,99.54
		c3.01,0,5.5-0.64,7.49-1.93c1.98-1.29,3.4-2.75,4.26-4.37V80.84h-7.02c-8.41,0-12.61,3.77-12.61,11.32c0,2.2,0.74,3.98,2.22,5.34
		S927.33,99.54,929.62,99.54z"/>
	<path d="M1002.56,46.09c5.16-6.5,11.75-9.74,19.77-9.74c8.55,0,15,2.53,19.34,7.59c4.35,5.06,6.57,12.54,6.66,22.42v48.93h-24.21
		V66.94c0-4.11-0.84-7.13-2.51-9.06c-1.67-1.93-4.51-2.9-8.53-2.9c-4.97,0-8.48,1.58-10.53,4.73v55.6h-24.14V5.25h24.14V46.09z"/>
</g>
</svg>
